<svg xmlns="http://www.w3.org/2000/svg" width="185" height="50" viewBox="0 0 185 50">
    <g fill="none" fill-rule="nonzero">
        <path fill="#1A1A1A" d="M66 20.172c0-2.48.444-4.39 1.331-5.73.888-1.34 2.118-2.01 3.691-2.01s2.803.67 3.691 2.01c.887 1.34 1.33 3.25 1.33 5.73 0 2.48-.443 4.39-1.33 5.73-.888 1.339-2.118 2.009-3.691 2.009s-2.803-.67-3.69-2.01c-.888-1.34-1.332-3.25-1.332-5.73zm7.923 0c0-.813-.047-1.582-.14-2.31-.094-.726-.254-1.36-.477-1.902-.224-.541-.523-.972-.899-1.293-.374-.32-.836-.48-1.385-.48s-1.01.16-1.386.48c-.374.32-.674.752-.897 1.293-.225.542-.383 1.176-.477 1.903a18.054 18.054 0 0 0-.14 2.31c0 .812.046 1.581.14 2.308.094.727.252 1.361.477 1.903.224.542.523.972.897 1.294.376.32.838.48 1.386.48.549 0 1.01-.16 1.385-.48.376-.32.675-.753.9-1.294.223-.542.382-1.176.475-1.903.096-.766.143-1.537.14-2.309zm4.054 0c0-2.48.444-4.39 1.332-5.73.887-1.34 2.117-2.01 3.69-2.01 1.574 0 2.804.67 3.69 2.01.889 1.34 1.332 3.25 1.332 5.73 0 2.48-.443 4.39-1.331 5.73-.887 1.339-2.117 2.009-3.69 2.009-1.574 0-2.804-.67-3.691-2.01-.888-1.34-1.332-3.25-1.332-5.73zm7.923 0c0-.813-.046-1.582-.14-2.31-.095-.726-.253-1.36-.477-1.902-.224-.542-.523-.973-.898-1.294-.376-.32-.837-.48-1.386-.48-.548 0-1.01.16-1.385.48-.376.32-.675.753-.899 1.294-.223.542-.382 1.176-.476 1.902a18.054 18.054 0 0 0-.14 2.31c0 .812.046 1.582.14 2.308.094.727.253 1.361.476 1.903.224.542.523.973.899 1.294.375.32.837.48 1.385.48.549 0 1.01-.16 1.386-.48.374-.32.674-.753.898-1.294.224-.542.382-1.176.476-1.903.097-.766.144-1.537.141-2.308zm4.054 0c0-2.48.444-4.39 1.331-5.73.888-1.34 2.117-2.01 3.692-2.01 1.572 0 2.802.67 3.69 2.01.888 1.34 1.331 3.25 1.331 5.73 0 2.48-.443 4.39-1.331 5.73-.888 1.339-2.117 2.009-3.69 2.009-1.574 0-2.804-.67-3.692-2.01-.887-1.34-1.33-3.25-1.33-5.73h-.001zm7.923 0c0-.813-.047-1.582-.141-2.31-.094-.726-.252-1.36-.476-1.902-.224-.542-.523-.973-.898-1.294-.376-.32-.838-.48-1.385-.48-.55 0-1.011.16-1.386.48-.376.32-.675.753-.899 1.294-.224.542-.382 1.176-.476 1.902a18.054 18.054 0 0 0-.14 2.31c0 .812.046 1.582.14 2.308.094.727.253 1.361.476 1.903.224.542.523.973.899 1.294.375.32.837.48 1.386.48.548 0 1.01-.16 1.385-.48.375-.32.675-.753.898-1.294.224-.542.382-1.176.476-1.903.096-.766.143-1.537.14-2.308zm13.903 7.417a87.841 87.841 0 0 1-1.287-3.516 57.64 57.64 0 0 1-1.245-4.115 61.65 61.65 0 0 1-1.234 4.115 78.78 78.78 0 0 1-1.277 3.517h-1.753c-.664-1.468-1.314-3.143-1.948-5.024a87.36 87.36 0 0 1-1.797-6.093h2.165c.144.67.317 1.397.52 2.18.202.787.415 1.571.638 2.353.224.783.458 1.539.703 2.265.246.727.477 1.362.694 1.903.244-.67.486-1.38.724-2.127.238-.748.465-1.503.683-2.266.216-.763.422-1.512.616-2.245.183-.684.352-1.372.509-2.063h1.666c.13.641.29 1.329.477 2.063.187.734.39 1.482.606 2.245.216.763.444 1.518.682 2.266.238.748.48 1.458.725 2.127.217-.542.444-1.175.682-1.903.239-.726.473-1.482.703-2.266.232-.784.448-1.568.65-2.351.188-.724.361-1.45.52-2.18h2.078a87.36 87.36 0 0 1-1.797 6.092c-.635 1.881-1.284 3.557-1.948 5.024h-1.754zm6.76-5.536c0-.983.145-1.843.434-2.576.289-.734.67-1.343 1.147-1.828a4.662 4.662 0 0 1 1.645-1.09 5.195 5.195 0 0 1 1.905-.364c1.515 0 2.677.467 3.485 1.4.808.934 1.213 2.355 1.213 4.266v.33c0 .136-.008.26-.022.375h-7.707c.087 1.154.426 2.031 1.018 2.63.591.598 1.515.898 2.771.898.707 0 1.302-.062 1.785-.182.484-.121.848-.239 1.093-.353l.282 1.668c-.245.128-.675.263-1.288.406-.613.143-1.31.213-2.09.213-.98 0-1.828-.145-2.542-.438-.715-.292-1.303-.694-1.764-1.208a4.912 4.912 0 0 1-1.029-1.827 7.634 7.634 0 0 1-.335-2.32zm7.728-1.09c.016-.898-.212-1.636-.681-2.213-.47-.577-1.115-.866-1.938-.866-.462 0-.869.089-1.223.267a2.88 2.88 0 0 0-.898.695c-.25.291-.444.625-.574.984a4.81 4.81 0 0 0-.27 1.132h5.585zm6.782-3.998c.246-.157.617-.32 1.115-.492.498-.171 1.072-.257 1.721-.257.809 0 1.526.143 2.154.427a4.47 4.47 0 0 1 1.592 1.199c.432.512.76 1.125.984 1.838.224.712.335 1.496.335 2.351 0 .899-.133 1.707-.4 2.427a5.108 5.108 0 0 1-1.136 1.828c-.501.506-1.107.9-1.775 1.154-.693.271-1.472.406-2.338.406-.938 0-1.768-.064-2.49-.192a19.726 19.726 0 0 1-1.775-.384V11.343L133.05 11v5.965zm0 8.893c.203.057.487.11.856.16.368.05.826.076 1.374.076 1.082 0 1.948-.353 2.598-1.059.649-.705.973-1.706.973-3.004 0-.57-.057-1.104-.172-1.602a3.582 3.582 0 0 0-.563-1.295 2.713 2.713 0 0 0-1.007-.854c-.411-.207-.905-.31-1.483-.31-.548 0-1.053.091-1.515.278-.462.185-.815.377-1.06.577v7.033zm10.506 1.732V11.343l2.012-.343v5.687a6.89 6.89 0 0 1 1.201-.332 6.981 6.981 0 0 1 1.267-.118c.895 0 1.638.126 2.23.374.591.25 1.064.6 1.417 1.048.354.45.603.988.747 1.614.144.628.217 1.319.217 2.075v6.242h-2.014v-5.815c0-.684-.046-1.268-.14-1.753-.094-.485-.25-.877-.466-1.175a1.839 1.839 0 0 0-.865-.653c-.361-.136-.809-.203-1.343-.203-.216 0-.44.014-.671.043-.231.028-.45.06-.66.096-.19.031-.377.07-.563.118-.121.029-.24.064-.357.106v9.236h-2.013zm22.064-5.559c0 .884-.13 1.682-.39 2.395a5.455 5.455 0 0 1-1.093 1.838 4.808 4.808 0 0 1-1.677 1.187 5.335 5.335 0 0 1-2.122.417 5.335 5.335 0 0 1-2.121-.417 4.808 4.808 0 0 1-1.677-1.187 5.44 5.44 0 0 1-1.094-1.839c-.26-.712-.39-1.51-.39-2.394 0-.87.13-1.663.39-2.383s.624-1.336 1.093-1.85a4.808 4.808 0 0 1 1.678-1.186 5.335 5.335 0 0 1 2.121-.417c.765 0 1.472.139 2.122.417a4.81 4.81 0 0 1 1.677 1.186c.47.514.834 1.13 1.094 1.85.26.72.389 1.514.389 2.383zm-2.1 0c0-1.254-.285-2.248-.855-2.982-.57-.734-1.345-1.1-2.327-1.1-.981 0-1.757.366-2.327 1.1-.57.734-.855 1.728-.855 2.982 0 1.255.285 2.249.855 2.983.57.734 1.346 1.1 2.327 1.1.982 0 1.757-.366 2.327-1.1.57-.734.856-1.728.856-2.983zm7.323 4.127c.823 0 1.433-.107 1.83-.32.396-.215.595-.557.595-1.027 0-.485-.195-.87-.584-1.155-.39-.285-1.033-.605-1.928-.962-.418-.165-.833-.34-1.244-.524a4.375 4.375 0 0 1-1.028-.63 2.758 2.758 0 0 1-.693-.877c-.173-.342-.26-.762-.26-1.262 0-.982.368-1.762 1.104-2.34.736-.577 1.739-.866 3.01-.866.316 0 .634.018.952.053.317.036.613.079.887.128.274.05.516.104.726.16.208.058.37.107.486.151l-.367 1.71c-.217-.114-.557-.232-1.018-.352-.462-.122-1.018-.183-1.667-.183-.562 0-1.053.11-1.472.332-.419.222-.627.566-.627 1.037 0 .242.046.456.14.64.094.187.238.354.433.504.195.15.437.288.725.416.289.128.635.264 1.04.407.533.2 1.01.395 1.428.588.388.172.749.4 1.072.673.296.257.523.567.681.93.16.363.238.809.238 1.336 0 1.027-.386 1.803-1.157 2.33-.773.527-1.873.791-3.302.791-.995 0-1.775-.081-2.338-.245-.562-.164-.945-.289-1.147-.374l.368-1.711c.232.086.599.214 1.105.385.504.171 1.175.257 2.012.257zm8.687-9.685h4.265v1.668h-4.265v5.13c0 .556.043 1.015.13 1.38.086.363.216.648.39.854.172.207.39.353.648.439.26.085.564.128.91.128.606 0 1.093-.068 1.461-.203.368-.136.624-.232.769-.29l.39 1.648c-.202.099-.556.224-1.062.374-.504.15-1.082.224-1.73.224-.766 0-1.398-.096-1.895-.288a2.753 2.753 0 0 1-1.202-.867c-.303-.384-.515-.858-.638-1.421-.123-.563-.184-1.215-.184-1.956v-9.92l2.013-.342v3.442zM68.512 33.963c.864 0 1.527.152 1.99.46.463.306.694.808.694 1.507 0 .703-.234 1.21-.703 1.524-.468.313-1.136.468-2.006.468h-.41v1.96h-1.304v-5.768c.298-.058.6-.097.903-.118.317-.023.596-.034.836-.034zm.084 1.122a4.58 4.58 0 0 0-.28.008c-.08.005-.16.01-.239.017V36.8h.41c.452 0 .792-.061 1.02-.185.228-.124.343-.355.343-.693a.84.84 0 0 0-.088-.406.67.67 0 0 0-.25-.257 1.122 1.122 0 0 0-.398-.135 3.249 3.249 0 0 0-.518-.038zm5.416 1.867c0 .287.035.545.105.776.07.231.17.43.301.596.131.165.29.294.48.384.19.09.407.135.653.135.24 0 .456-.045.647-.135.19-.089.357-.22.486-.384.131-.167.232-.365.301-.596.07-.23.104-.49.104-.776 0-.288-.034-.548-.105-.782a1.776 1.776 0 0 0-.301-.6 1.325 1.325 0 0 0-.485-.384 1.51 1.51 0 0 0-.647-.135 1.377 1.377 0 0 0-1.133.528 1.762 1.762 0 0 0-.301.6c-.07.233-.105.491-.105.773zm4.424 0c0 .5-.075.94-.222 1.32a2.72 2.72 0 0 1-.606.955c-.258.257-.57.455-.916.579a3.29 3.29 0 0 1-1.141.194c-.396 0-.77-.065-1.12-.194a2.573 2.573 0 0 1-1.539-1.533c-.15-.38-.226-.82-.226-1.321 0-.502.078-.942.234-1.322.157-.38.367-.7.632-.959.26-.256.574-.455.92-.583.347-.13.714-.194 1.099-.194.396 0 .769.065 1.12.194.351.13.657.325.92.583.262.26.468.579.618.959.15.38.227.82.227 1.322zm5.65-2.297c.067.23.141.49.221.78.082.29.168.59.26.9.092.31.186.619.28.929.095.31.187.597.276.861.165-.657.31-1.319.435-1.985.13-.702.255-1.406.376-2.11h1.355c-.2.998-.424 1.992-.673 2.98a43.642 43.642 0 0 1-.824 2.871h-1.196a38.968 38.968 0 0 1-.568-1.701c-.184-.594-.366-1.19-.544-1.786l-.535 1.786a31.63 31.63 0 0 1-.56 1.701h-1.196a43.642 43.642 0 0 1-.823-2.87 61.168 61.168 0 0 1-.673-2.981h1.413c.12.705.251 1.409.392 2.11.073.36.147.71.222 1.047.075.339.152.65.23.938.1-.276.198-.568.293-.878.095-.31.186-.62.275-.929.09-.31.172-.608.248-.895.075-.287.143-.543.205-.768h1.111zm4.798 5.227V34.03h3.913v1.106H90.19v1.148h2.316v1.081h-2.316v1.41h2.8v1.107h-4.105zm7.524-5.92c.87 0 1.536.156 1.999.469.462.312.694.797.694 1.456 0 .411-.094.745-.281 1.001-.187.256-.456.457-.807.603.117.147.24.315.368.504.409.599.767 1.23 1.07 1.886H97.99c-.107-.19-.214-.385-.323-.582a14.051 14.051 0 0 0-.673-1.102 5.714 5.714 0 0 0-.334-.452h-.644v2.137h-1.304v-5.768c.29-.057.585-.097.881-.118.305-.023.576-.034.816-.034zm.075 1.123c-.085 0-.17.002-.255.008l-.213.017v1.587h.368c.49 0 .842-.06 1.053-.185.212-.124.318-.335.318-.633 0-.287-.108-.491-.322-.612-.215-.122-.53-.182-.949-.182zm4.564 4.796V34.03h3.913v1.106h-2.609v1.148h2.316v1.081h-2.316v1.41h2.802v1.107h-4.106zm7.13-1.072a7.798 7.798 0 0 0 .501.017c.653 0 1.137-.166 1.452-.498.315-.332.473-.791.473-1.376 0-.615-.151-1.079-.452-1.394-.301-.315-.778-.473-1.43-.473-.089 0-.18.001-.276.005-.09.002-.179.009-.267.02v3.7zm3.772-1.857c0 .506-.078.947-.234 1.325-.144.36-.372.681-.665.937a2.826 2.826 0 0 1-1.05.557 4.82 4.82 0 0 1-1.387.187c-.234 0-.508-.01-.82-.03a6.418 6.418 0 0 1-.919-.123v-5.7c.31-.057.624-.095.94-.114.28-.018.56-.027.84-.029.456-.005.91.051 1.35.168.405.113.752.29 1.042.533.29.242.512.552.669.929.156.377.234.83.234 1.36zm6.544 3.006c-.318 0-.634-.01-.949-.03a6.645 6.645 0 0 1-.983-.14v-5.674c.29-.054.584-.092.879-.114.317-.025.612-.038.886-.038.368 0 .706.027 1.015.08.31.054.576.145.8.275.222.13.397.3.522.51.125.211.188.472.188.781 0 .468-.223.837-.669 1.107.368.14.618.332.753.574.133.242.2.515.2.819 0 .613-.221 1.076-.665 1.385-.442.31-1.102.465-1.977.465zm-.66-2.627v1.512c.094.011.197.02.308.025.112.006.234.008.369.008.39 0 .705-.055.944-.168.24-.113.36-.32.36-.625 0-.27-.1-.463-.301-.579-.201-.114-.488-.173-.86-.173h-.82zm0-1.004h.635c.401 0 .688-.053.861-.157.173-.104.259-.272.259-.502 0-.237-.089-.403-.267-.498-.178-.096-.441-.144-.786-.144-.112 0-.232.002-.36.004-.114.002-.229.01-.343.021v1.275zm6.946.11c.234-.4.458-.8.67-1.2.209-.396.404-.798.584-1.207h1.438c-.311.62-.64 1.23-.986 1.832a47.758 47.758 0 0 1-1.079 1.782v2.237h-1.305v-2.22a47.065 47.065 0 0 1-1.083-1.79 38.246 38.246 0 0 1-.99-1.841h1.513c.178.405.371.808.577 1.207.206.4.426.8.66 1.2h.001zm10.424-2.407h1.304v5.851h-1.304V37.4h-2.19v2.482h-1.305V34.03h1.304v2.237h2.191V34.03zm4.497 2.922c0 .287.034.545.105.776.07.231.17.43.301.596.13.165.29.294.48.384.19.09.407.135.652.135.24 0 .456-.045.648-.135.193-.09.354-.219.486-.384.13-.167.23-.365.3-.596.07-.23.105-.49.105-.776 0-.288-.035-.548-.105-.782a1.776 1.776 0 0 0-.301-.6 1.325 1.325 0 0 0-.485-.384 1.51 1.51 0 0 0-.648-.135 1.377 1.377 0 0 0-1.133.528 1.762 1.762 0 0 0-.301.6c-.07.233-.104.491-.104.773zm4.423 0c0 .5-.074.94-.221 1.32a2.72 2.72 0 0 1-.607.955c-.258.257-.57.455-.916.579a3.29 3.29 0 0 1-1.14.194 3.227 3.227 0 0 1-1.121-.194 2.573 2.573 0 0 1-.92-.579 2.707 2.707 0 0 1-.618-.954c-.15-.38-.226-.82-.226-1.321 0-.502.078-.942.234-1.322.156-.38.367-.7.631-.959.261-.256.575-.455.92-.583.348-.13.715-.194 1.1-.194.396 0 .769.065 1.12.194.351.13.657.325.92.583.262.26.467.579.618.959.15.38.226.82.226 1.322zm3.427 1.924c.184 0 .336-.015.456-.046a.837.837 0 0 0 .288-.126.424.424 0 0 0 .15-.191.684.684 0 0 0 .042-.244c0-.192-.09-.351-.267-.477-.179-.127-.485-.263-.92-.41a6.896 6.896 0 0 1-.568-.232 2.093 2.093 0 0 1-.51-.33 1.574 1.574 0 0 1-.369-.48 1.53 1.53 0 0 1-.142-.689c0-.27.05-.514.15-.73.101-.218.243-.402.427-.553.184-.153.407-.27.67-.351.261-.082.556-.123.886-.123a3.565 3.565 0 0 1 1.714.406l-.377 1.038a3.544 3.544 0 0 0-.54-.223 2.314 2.314 0 0 0-.714-.097c-.312 0-.536.043-.673.13-.137.087-.205.222-.205.402 0 .107.025.197.075.27.057.08.13.147.214.198.092.059.197.112.317.16.12.049.253.097.397.149.302.112.564.223.786.333.223.11.409.237.556.384.148.146.259.318.33.515.073.197.11.437.11.717 0 .547-.19.97-.57 1.272-.378.301-.95.452-1.713.452a4.445 4.445 0 0 1-1.242-.16 3.116 3.116 0 0 1-.698-.288l.368-1.047c.172.096.386.181.64.258.253.076.564.114.932.114zm8.175-4.846v1.123h-1.746v4.728h-1.305v-4.727h-1.747V34.03h4.798zm1.597 0h1.304v5.851h-1.304V34.03zm7.289 5.851a29.498 29.498 0 0 0-1.213-1.984c-.426-.642-.89-1.26-1.387-1.849v3.833h-1.288V34.03h1.062c.184.185.387.413.61.683a26.29 26.29 0 0 1 1.371 1.82c.229.33.444.646.645.95V34.03h1.296v5.851h-1.096zm6.02-4.838c-.609 0-1.048.17-1.318.511-.27.34-.406.806-.406 1.397 0 .288.033.548.1.781.068.234.168.435.302.604.134.169.301.3.501.393.201.092.435.139.703.139.144 0 .269-.002.372-.008.103-.006.193-.017.272-.034V36.79h1.304v2.897a5.063 5.063 0 0 1-.753.198c-.345.07-.772.105-1.28.105a3.295 3.295 0 0 1-1.182-.203 2.472 2.472 0 0 1-.908-.59 2.643 2.643 0 0 1-.58-.954 3.802 3.802 0 0 1-.205-1.292c0-.49.075-.924.225-1.3.138-.359.349-.685.62-.96.26-.26.576-.464.923-.595a3.15 3.15 0 0 1 1.133-.203c.443-.003.884.058 1.308.182.216.062.423.151.615.266l-.376 1.056a3.381 3.381 0 0 0-.615-.25 2.59 2.59 0 0 0-.756-.105zm3.801 4.838V34.03h3.914v1.106h-2.609v1.148h2.316v1.081h-2.316v1.41h2.801v1.107h-4.105zm7.524-5.919c.87 0 1.536.156 1.999.469.463.312.694.797.694 1.456 0 .411-.093.745-.28 1.001-.187.256-.456.457-.807.603.117.147.24.315.368.504.408.599.766 1.23 1.07 1.886h-1.464l-.321-.582a14.051 14.051 0 0 0-.673-1.102 5.714 5.714 0 0 0-.335-.452h-.643v2.137h-1.305v-5.768c.291-.057.586-.097.882-.118.304-.023.576-.034.815-.034zm.076 1.123c-.085 0-.17.002-.255.008l-.213.017v1.587h.368c.49 0 .842-.06 1.053-.185.211-.124.317-.335.317-.633 0-.287-.106-.491-.321-.612-.215-.122-.531-.182-.949-.182z"/>
        <path fill="#FF5C62" d="M18.648 20C16.108 42.926 37.052 46.463 43 39.877 32.528 65.425 7.929 36.524 18.648 20zM15 16C5.923 17.297-7.568 46.013 8.41 42.74-1.413 39.22 8.472 18.903 15 16zm0-3.717C11.952 10.803.837 15.182 0 24c2.092-4.687 7.53-11.038 15-11.717zm4-2.803C14.32 5.773 8.74 10.028 7 11c4.68-5.53 11.7-4.619 12-1.52zM23.856 7C27.382 4.426 22.093-.46 17 3.48c1.829-.63 7.966-1.47 6.856 3.52zm4.722 2C34.533 2.86 29.56.478 28 .352c8.326-2.318 4.625 7.52.578 8.648zM30 12.62C36.392 15.166 55.443 4.174 40.274 2c3.463.87 4.24 8.136-10.273 10.62H30zm-4 5.953C30.261 31.127 68.31 29.963 51.927 13c3.54 5.818-5.281 16.168-25.926 5.573H26z"/>
    </g>
</svg>
